<mxfile host="app.diagrams.net" modified="2023-11-28T11:35:35.206Z" agent="Mozilla/5.0 (Windows NT 10.0; Win64; x64) AppleWebKit/537.36 (KHTML, like Gecko) Chrome/119.0.0.0 Safari/537.36" etag="7D_uTeoVJl3CvD5t-d1x" version="22.1.4" type="github" pages="3">
  <diagram id="C5RBs43oDa-KdzZeNtuy" name="Page-1">
    <mxGraphModel dx="1488" dy="902" grid="1" gridSize="10" guides="1" tooltips="1" connect="1" arrows="1" fold="1" page="1" pageScale="1" pageWidth="827" pageHeight="1169" math="0" shadow="0">
      <root>
        <mxCell id="WIyWlLk6GJQsqaUBKTNV-0" />
        <mxCell id="WIyWlLk6GJQsqaUBKTNV-1" parent="WIyWlLk6GJQsqaUBKTNV-0" />
        <mxCell id="zkfFHV4jXpPFQw0GAbJ--0" value="Person" style="swimlane;fontStyle=2;align=center;verticalAlign=top;childLayout=stackLayout;horizontal=1;startSize=26;horizontalStack=0;resizeParent=1;resizeLast=0;collapsible=1;marginBottom=0;rounded=0;shadow=0;strokeWidth=1;" parent="WIyWlLk6GJQsqaUBKTNV-1" vertex="1">
          <mxGeometry x="220" y="120" width="160" height="138" as="geometry">
            <mxRectangle x="230" y="140" width="160" height="26" as="alternateBounds" />
          </mxGeometry>
        </mxCell>
        <mxCell id="zkfFHV4jXpPFQw0GAbJ--1" value="Name" style="text;align=left;verticalAlign=top;spacingLeft=4;spacingRight=4;overflow=hidden;rotatable=0;points=[[0,0.5],[1,0.5]];portConstraint=eastwest;" parent="zkfFHV4jXpPFQw0GAbJ--0" vertex="1">
          <mxGeometry y="26" width="160" height="26" as="geometry" />
        </mxCell>
        <mxCell id="zkfFHV4jXpPFQw0GAbJ--2" value="Phone Number" style="text;align=left;verticalAlign=top;spacingLeft=4;spacingRight=4;overflow=hidden;rotatable=0;points=[[0,0.5],[1,0.5]];portConstraint=eastwest;rounded=0;shadow=0;html=0;" parent="zkfFHV4jXpPFQw0GAbJ--0" vertex="1">
          <mxGeometry y="52" width="160" height="26" as="geometry" />
        </mxCell>
        <mxCell id="zkfFHV4jXpPFQw0GAbJ--3" value="Email Address" style="text;align=left;verticalAlign=top;spacingLeft=4;spacingRight=4;overflow=hidden;rotatable=0;points=[[0,0.5],[1,0.5]];portConstraint=eastwest;rounded=0;shadow=0;html=0;" parent="zkfFHV4jXpPFQw0GAbJ--0" vertex="1">
          <mxGeometry y="78" width="160" height="26" as="geometry" />
        </mxCell>
        <mxCell id="zkfFHV4jXpPFQw0GAbJ--4" value="" style="line;html=1;strokeWidth=1;align=left;verticalAlign=middle;spacingTop=-1;spacingLeft=3;spacingRight=3;rotatable=0;labelPosition=right;points=[];portConstraint=eastwest;" parent="zkfFHV4jXpPFQw0GAbJ--0" vertex="1">
          <mxGeometry y="104" width="160" height="8" as="geometry" />
        </mxCell>
        <mxCell id="zkfFHV4jXpPFQw0GAbJ--5" value="Purchase Parking Pass" style="text;align=left;verticalAlign=top;spacingLeft=4;spacingRight=4;overflow=hidden;rotatable=0;points=[[0,0.5],[1,0.5]];portConstraint=eastwest;" parent="zkfFHV4jXpPFQw0GAbJ--0" vertex="1">
          <mxGeometry y="112" width="160" height="26" as="geometry" />
        </mxCell>
        <mxCell id="zkfFHV4jXpPFQw0GAbJ--6" value="Student" style="swimlane;fontStyle=0;align=center;verticalAlign=top;childLayout=stackLayout;horizontal=1;startSize=26;horizontalStack=0;resizeParent=1;resizeLast=0;collapsible=1;marginBottom=0;rounded=0;shadow=0;strokeWidth=1;" parent="WIyWlLk6GJQsqaUBKTNV-1" vertex="1">
          <mxGeometry x="120" y="360" width="160" height="138" as="geometry">
            <mxRectangle x="130" y="380" width="160" height="26" as="alternateBounds" />
          </mxGeometry>
        </mxCell>
        <mxCell id="zkfFHV4jXpPFQw0GAbJ--7" value="Student Number" style="text;align=left;verticalAlign=top;spacingLeft=4;spacingRight=4;overflow=hidden;rotatable=0;points=[[0,0.5],[1,0.5]];portConstraint=eastwest;" parent="zkfFHV4jXpPFQw0GAbJ--6" vertex="1">
          <mxGeometry y="26" width="160" height="26" as="geometry" />
        </mxCell>
        <mxCell id="zkfFHV4jXpPFQw0GAbJ--8" value="Average Mark" style="text;align=left;verticalAlign=top;spacingLeft=4;spacingRight=4;overflow=hidden;rotatable=0;points=[[0,0.5],[1,0.5]];portConstraint=eastwest;rounded=0;shadow=0;html=0;" parent="zkfFHV4jXpPFQw0GAbJ--6" vertex="1">
          <mxGeometry y="52" width="160" height="26" as="geometry" />
        </mxCell>
        <mxCell id="zkfFHV4jXpPFQw0GAbJ--9" value="" style="line;html=1;strokeWidth=1;align=left;verticalAlign=middle;spacingTop=-1;spacingLeft=3;spacingRight=3;rotatable=0;labelPosition=right;points=[];portConstraint=eastwest;" parent="zkfFHV4jXpPFQw0GAbJ--6" vertex="1">
          <mxGeometry y="78" width="160" height="8" as="geometry" />
        </mxCell>
        <mxCell id="zkfFHV4jXpPFQw0GAbJ--10" value="Is Eligible To Enroll" style="text;align=left;verticalAlign=top;spacingLeft=4;spacingRight=4;overflow=hidden;rotatable=0;points=[[0,0.5],[1,0.5]];portConstraint=eastwest;fontStyle=4" parent="zkfFHV4jXpPFQw0GAbJ--6" vertex="1">
          <mxGeometry y="86" width="160" height="26" as="geometry" />
        </mxCell>
        <mxCell id="zkfFHV4jXpPFQw0GAbJ--11" value="Get Seminars Taken" style="text;align=left;verticalAlign=top;spacingLeft=4;spacingRight=4;overflow=hidden;rotatable=0;points=[[0,0.5],[1,0.5]];portConstraint=eastwest;" parent="zkfFHV4jXpPFQw0GAbJ--6" vertex="1">
          <mxGeometry y="112" width="160" height="26" as="geometry" />
        </mxCell>
        <mxCell id="zkfFHV4jXpPFQw0GAbJ--12" value="" style="endArrow=block;endSize=10;endFill=0;shadow=0;strokeWidth=1;rounded=0;edgeStyle=elbowEdgeStyle;elbow=vertical;" parent="WIyWlLk6GJQsqaUBKTNV-1" source="zkfFHV4jXpPFQw0GAbJ--6" target="zkfFHV4jXpPFQw0GAbJ--0" edge="1">
          <mxGeometry width="160" relative="1" as="geometry">
            <mxPoint x="200" y="203" as="sourcePoint" />
            <mxPoint x="200" y="203" as="targetPoint" />
          </mxGeometry>
        </mxCell>
        <mxCell id="zkfFHV4jXpPFQw0GAbJ--13" value="Professor" style="swimlane;fontStyle=0;align=center;verticalAlign=top;childLayout=stackLayout;horizontal=1;startSize=26;horizontalStack=0;resizeParent=1;resizeLast=0;collapsible=1;marginBottom=0;rounded=0;shadow=0;strokeWidth=1;" parent="WIyWlLk6GJQsqaUBKTNV-1" vertex="1">
          <mxGeometry x="310" y="360" width="160" height="70" as="geometry">
            <mxRectangle x="340" y="380" width="170" height="26" as="alternateBounds" />
          </mxGeometry>
        </mxCell>
        <mxCell id="zkfFHV4jXpPFQw0GAbJ--14" value="Salary" style="text;align=left;verticalAlign=top;spacingLeft=4;spacingRight=4;overflow=hidden;rotatable=0;points=[[0,0.5],[1,0.5]];portConstraint=eastwest;" parent="zkfFHV4jXpPFQw0GAbJ--13" vertex="1">
          <mxGeometry y="26" width="160" height="26" as="geometry" />
        </mxCell>
        <mxCell id="zkfFHV4jXpPFQw0GAbJ--15" value="" style="line;html=1;strokeWidth=1;align=left;verticalAlign=middle;spacingTop=-1;spacingLeft=3;spacingRight=3;rotatable=0;labelPosition=right;points=[];portConstraint=eastwest;" parent="zkfFHV4jXpPFQw0GAbJ--13" vertex="1">
          <mxGeometry y="52" width="160" height="8" as="geometry" />
        </mxCell>
        <mxCell id="zkfFHV4jXpPFQw0GAbJ--16" value="" style="endArrow=block;endSize=10;endFill=0;shadow=0;strokeWidth=1;rounded=0;edgeStyle=elbowEdgeStyle;elbow=vertical;" parent="WIyWlLk6GJQsqaUBKTNV-1" source="zkfFHV4jXpPFQw0GAbJ--13" target="zkfFHV4jXpPFQw0GAbJ--0" edge="1">
          <mxGeometry width="160" relative="1" as="geometry">
            <mxPoint x="210" y="373" as="sourcePoint" />
            <mxPoint x="310" y="271" as="targetPoint" />
          </mxGeometry>
        </mxCell>
        <mxCell id="zkfFHV4jXpPFQw0GAbJ--17" value="Address" style="swimlane;fontStyle=0;align=center;verticalAlign=top;childLayout=stackLayout;horizontal=1;startSize=26;horizontalStack=0;resizeParent=1;resizeLast=0;collapsible=1;marginBottom=0;rounded=0;shadow=0;strokeWidth=1;" parent="WIyWlLk6GJQsqaUBKTNV-1" vertex="1">
          <mxGeometry x="508" y="120" width="160" height="216" as="geometry">
            <mxRectangle x="550" y="140" width="160" height="26" as="alternateBounds" />
          </mxGeometry>
        </mxCell>
        <mxCell id="zkfFHV4jXpPFQw0GAbJ--18" value="Street" style="text;align=left;verticalAlign=top;spacingLeft=4;spacingRight=4;overflow=hidden;rotatable=0;points=[[0,0.5],[1,0.5]];portConstraint=eastwest;" parent="zkfFHV4jXpPFQw0GAbJ--17" vertex="1">
          <mxGeometry y="26" width="160" height="26" as="geometry" />
        </mxCell>
        <mxCell id="zkfFHV4jXpPFQw0GAbJ--19" value="City" style="text;align=left;verticalAlign=top;spacingLeft=4;spacingRight=4;overflow=hidden;rotatable=0;points=[[0,0.5],[1,0.5]];portConstraint=eastwest;rounded=0;shadow=0;html=0;" parent="zkfFHV4jXpPFQw0GAbJ--17" vertex="1">
          <mxGeometry y="52" width="160" height="26" as="geometry" />
        </mxCell>
        <mxCell id="zkfFHV4jXpPFQw0GAbJ--20" value="State" style="text;align=left;verticalAlign=top;spacingLeft=4;spacingRight=4;overflow=hidden;rotatable=0;points=[[0,0.5],[1,0.5]];portConstraint=eastwest;rounded=0;shadow=0;html=0;" parent="zkfFHV4jXpPFQw0GAbJ--17" vertex="1">
          <mxGeometry y="78" width="160" height="26" as="geometry" />
        </mxCell>
        <mxCell id="zkfFHV4jXpPFQw0GAbJ--21" value="Postal Code" style="text;align=left;verticalAlign=top;spacingLeft=4;spacingRight=4;overflow=hidden;rotatable=0;points=[[0,0.5],[1,0.5]];portConstraint=eastwest;rounded=0;shadow=0;html=0;" parent="zkfFHV4jXpPFQw0GAbJ--17" vertex="1">
          <mxGeometry y="104" width="160" height="26" as="geometry" />
        </mxCell>
        <mxCell id="zkfFHV4jXpPFQw0GAbJ--22" value="Country" style="text;align=left;verticalAlign=top;spacingLeft=4;spacingRight=4;overflow=hidden;rotatable=0;points=[[0,0.5],[1,0.5]];portConstraint=eastwest;rounded=0;shadow=0;html=0;" parent="zkfFHV4jXpPFQw0GAbJ--17" vertex="1">
          <mxGeometry y="130" width="160" height="26" as="geometry" />
        </mxCell>
        <mxCell id="zkfFHV4jXpPFQw0GAbJ--23" value="" style="line;html=1;strokeWidth=1;align=left;verticalAlign=middle;spacingTop=-1;spacingLeft=3;spacingRight=3;rotatable=0;labelPosition=right;points=[];portConstraint=eastwest;" parent="zkfFHV4jXpPFQw0GAbJ--17" vertex="1">
          <mxGeometry y="156" width="160" height="8" as="geometry" />
        </mxCell>
        <mxCell id="zkfFHV4jXpPFQw0GAbJ--24" value="Validate" style="text;align=left;verticalAlign=top;spacingLeft=4;spacingRight=4;overflow=hidden;rotatable=0;points=[[0,0.5],[1,0.5]];portConstraint=eastwest;" parent="zkfFHV4jXpPFQw0GAbJ--17" vertex="1">
          <mxGeometry y="164" width="160" height="26" as="geometry" />
        </mxCell>
        <mxCell id="zkfFHV4jXpPFQw0GAbJ--25" value="Output As Label" style="text;align=left;verticalAlign=top;spacingLeft=4;spacingRight=4;overflow=hidden;rotatable=0;points=[[0,0.5],[1,0.5]];portConstraint=eastwest;" parent="zkfFHV4jXpPFQw0GAbJ--17" vertex="1">
          <mxGeometry y="190" width="160" height="26" as="geometry" />
        </mxCell>
        <mxCell id="zkfFHV4jXpPFQw0GAbJ--26" value="" style="endArrow=open;shadow=0;strokeWidth=1;rounded=0;endFill=1;edgeStyle=elbowEdgeStyle;elbow=vertical;" parent="WIyWlLk6GJQsqaUBKTNV-1" source="zkfFHV4jXpPFQw0GAbJ--0" target="zkfFHV4jXpPFQw0GAbJ--17" edge="1">
          <mxGeometry x="0.5" y="41" relative="1" as="geometry">
            <mxPoint x="380" y="192" as="sourcePoint" />
            <mxPoint x="540" y="192" as="targetPoint" />
            <mxPoint x="-40" y="32" as="offset" />
          </mxGeometry>
        </mxCell>
        <mxCell id="zkfFHV4jXpPFQw0GAbJ--27" value="0..1" style="resizable=0;align=left;verticalAlign=bottom;labelBackgroundColor=none;fontSize=12;" parent="zkfFHV4jXpPFQw0GAbJ--26" connectable="0" vertex="1">
          <mxGeometry x="-1" relative="1" as="geometry">
            <mxPoint y="4" as="offset" />
          </mxGeometry>
        </mxCell>
        <mxCell id="zkfFHV4jXpPFQw0GAbJ--28" value="1" style="resizable=0;align=right;verticalAlign=bottom;labelBackgroundColor=none;fontSize=12;" parent="zkfFHV4jXpPFQw0GAbJ--26" connectable="0" vertex="1">
          <mxGeometry x="1" relative="1" as="geometry">
            <mxPoint x="-7" y="4" as="offset" />
          </mxGeometry>
        </mxCell>
        <mxCell id="zkfFHV4jXpPFQw0GAbJ--29" value="lives at" style="text;html=1;resizable=0;points=[];;align=center;verticalAlign=middle;labelBackgroundColor=none;rounded=0;shadow=0;strokeWidth=1;fontSize=12;" parent="zkfFHV4jXpPFQw0GAbJ--26" vertex="1" connectable="0">
          <mxGeometry x="0.5" y="49" relative="1" as="geometry">
            <mxPoint x="-38" y="40" as="offset" />
          </mxGeometry>
        </mxCell>
      </root>
    </mxGraphModel>
  </diagram>
  <diagram id="9p0JVf2NDAySuSpNOSX-" name="第 2 页">
    <mxGraphModel dx="1488" dy="902" grid="1" gridSize="10" guides="1" tooltips="1" connect="1" arrows="1" fold="1" page="1" pageScale="1" pageWidth="1169" pageHeight="827" math="0" shadow="0">
      <root>
        <mxCell id="0" />
        <mxCell id="1" parent="0" />
        <mxCell id="2Mky9sf-3EUOuvfR4mi3-1" value="" style="group" parent="1" vertex="1" connectable="0">
          <mxGeometry x="147" y="70" width="876" height="997" as="geometry" />
        </mxCell>
        <mxCell id="2Mky9sf-3EUOuvfR4mi3-2" value="Photo" style="swimlane;fontStyle=0;align=center;verticalAlign=top;childLayout=stackLayout;horizontal=1;startSize=26;horizontalStack=0;resizeParent=1;resizeLast=0;collapsible=1;marginBottom=0;rounded=0;shadow=0;strokeWidth=1;" parent="2Mky9sf-3EUOuvfR4mi3-1" vertex="1">
          <mxGeometry width="220" height="424" as="geometry">
            <mxRectangle x="230" y="140" width="160" height="26" as="alternateBounds" />
          </mxGeometry>
        </mxCell>
        <mxCell id="2Mky9sf-3EUOuvfR4mi3-3" value="-pid : int" style="text;align=left;verticalAlign=top;spacingLeft=4;spacingRight=4;overflow=hidden;rotatable=0;points=[[0,0.5],[1,0.5]];portConstraint=eastwest;" parent="2Mky9sf-3EUOuvfR4mi3-2" vertex="1">
          <mxGeometry y="26" width="220" height="26" as="geometry" />
        </mxCell>
        <mxCell id="2Mky9sf-3EUOuvfR4mi3-4" value="-pname : String" style="text;align=left;verticalAlign=top;spacingLeft=4;spacingRight=4;overflow=hidden;rotatable=0;points=[[0,0.5],[1,0.5]];portConstraint=eastwest;rounded=0;shadow=0;html=0;" parent="2Mky9sf-3EUOuvfR4mi3-2" vertex="1">
          <mxGeometry y="52" width="220" height="26" as="geometry" />
        </mxCell>
        <mxCell id="2Mky9sf-3EUOuvfR4mi3-5" value="-puploadTime : Date" style="text;align=left;verticalAlign=top;spacingLeft=4;spacingRight=4;overflow=hidden;rotatable=0;points=[[0,0.5],[1,0.5]];portConstraint=eastwest;rounded=0;shadow=0;html=0;" parent="2Mky9sf-3EUOuvfR4mi3-2" vertex="1">
          <mxGeometry y="78" width="220" height="26" as="geometry" />
        </mxCell>
        <mxCell id="2Mky9sf-3EUOuvfR4mi3-6" value="-pdiscription : String" style="text;align=left;verticalAlign=top;spacingLeft=4;spacingRight=4;overflow=hidden;rotatable=0;points=[[0,0.5],[1,0.5]];portConstraint=eastwest;rounded=0;shadow=0;html=0;" parent="2Mky9sf-3EUOuvfR4mi3-2" vertex="1">
          <mxGeometry y="104" width="220" height="26" as="geometry" />
        </mxCell>
        <mxCell id="2Mky9sf-3EUOuvfR4mi3-7" value="-aid : int" style="text;align=left;verticalAlign=top;spacingLeft=4;spacingRight=4;overflow=hidden;rotatable=0;points=[[0,0.5],[1,0.5]];portConstraint=eastwest;rounded=0;shadow=0;html=0;" parent="2Mky9sf-3EUOuvfR4mi3-2" vertex="1">
          <mxGeometry y="130" width="220" height="26" as="geometry" />
        </mxCell>
        <mxCell id="2Mky9sf-3EUOuvfR4mi3-8" value="" style="line;html=1;strokeWidth=1;align=left;verticalAlign=middle;spacingTop=-1;spacingLeft=3;spacingRight=3;rotatable=0;labelPosition=right;points=[];portConstraint=eastwest;" parent="2Mky9sf-3EUOuvfR4mi3-2" vertex="1">
          <mxGeometry y="156" width="220" height="8" as="geometry" />
        </mxCell>
        <mxCell id="2Mky9sf-3EUOuvfR4mi3-9" value="+getPid() : int" style="text;align=left;verticalAlign=top;spacingLeft=4;spacingRight=4;overflow=hidden;rotatable=0;points=[[0,0.5],[1,0.5]];portConstraint=eastwest;" parent="2Mky9sf-3EUOuvfR4mi3-2" vertex="1">
          <mxGeometry y="164" width="220" height="26" as="geometry" />
        </mxCell>
        <mxCell id="2Mky9sf-3EUOuvfR4mi3-10" value="+setPid(aid : int)" style="text;align=left;verticalAlign=top;spacingLeft=4;spacingRight=4;overflow=hidden;rotatable=0;points=[[0,0.5],[1,0.5]];portConstraint=eastwest;" parent="2Mky9sf-3EUOuvfR4mi3-2" vertex="1">
          <mxGeometry y="190" width="220" height="26" as="geometry" />
        </mxCell>
        <mxCell id="2Mky9sf-3EUOuvfR4mi3-11" value="+getPname() : String" style="text;align=left;verticalAlign=top;spacingLeft=4;spacingRight=4;overflow=hidden;rotatable=0;points=[[0,0.5],[1,0.5]];portConstraint=eastwest;" parent="2Mky9sf-3EUOuvfR4mi3-2" vertex="1">
          <mxGeometry y="216" width="220" height="26" as="geometry" />
        </mxCell>
        <mxCell id="2Mky9sf-3EUOuvfR4mi3-12" value="+setPname(aname : String)" style="text;align=left;verticalAlign=top;spacingLeft=4;spacingRight=4;overflow=hidden;rotatable=0;points=[[0,0.5],[1,0.5]];portConstraint=eastwest;" parent="2Mky9sf-3EUOuvfR4mi3-2" vertex="1">
          <mxGeometry y="242" width="220" height="26" as="geometry" />
        </mxCell>
        <mxCell id="2Mky9sf-3EUOuvfR4mi3-13" value="+getPuploadTime() : Date" style="text;align=left;verticalAlign=top;spacingLeft=4;spacingRight=4;overflow=hidden;rotatable=0;points=[[0,0.5],[1,0.5]];portConstraint=eastwest;" parent="2Mky9sf-3EUOuvfR4mi3-2" vertex="1">
          <mxGeometry y="268" width="220" height="26" as="geometry" />
        </mxCell>
        <mxCell id="2Mky9sf-3EUOuvfR4mi3-14" value="+setPuploadTime(puploadTime : Date)" style="text;align=left;verticalAlign=top;spacingLeft=4;spacingRight=4;overflow=hidden;rotatable=0;points=[[0,0.5],[1,0.5]];portConstraint=eastwest;" parent="2Mky9sf-3EUOuvfR4mi3-2" vertex="1">
          <mxGeometry y="294" width="220" height="26" as="geometry" />
        </mxCell>
        <mxCell id="2Mky9sf-3EUOuvfR4mi3-15" value="+getPdiscription() : String" style="text;align=left;verticalAlign=top;spacingLeft=4;spacingRight=4;overflow=hidden;rotatable=0;points=[[0,0.5],[1,0.5]];portConstraint=eastwest;" parent="2Mky9sf-3EUOuvfR4mi3-2" vertex="1">
          <mxGeometry y="320" width="220" height="26" as="geometry" />
        </mxCell>
        <mxCell id="2Mky9sf-3EUOuvfR4mi3-16" value="+setPdiscription(adiscription : String)" style="text;align=left;verticalAlign=top;spacingLeft=4;spacingRight=4;overflow=hidden;rotatable=0;points=[[0,0.5],[1,0.5]];portConstraint=eastwest;" parent="2Mky9sf-3EUOuvfR4mi3-2" vertex="1">
          <mxGeometry y="346" width="220" height="26" as="geometry" />
        </mxCell>
        <mxCell id="2Mky9sf-3EUOuvfR4mi3-17" value="+getAid() : int" style="text;align=left;verticalAlign=top;spacingLeft=4;spacingRight=4;overflow=hidden;rotatable=0;points=[[0,0.5],[1,0.5]];portConstraint=eastwest;" parent="2Mky9sf-3EUOuvfR4mi3-2" vertex="1">
          <mxGeometry y="372" width="220" height="26" as="geometry" />
        </mxCell>
        <mxCell id="2Mky9sf-3EUOuvfR4mi3-18" value="+setAid(uid : int)" style="text;align=left;verticalAlign=top;spacingLeft=4;spacingRight=4;overflow=hidden;rotatable=0;points=[[0,0.5],[1,0.5]];portConstraint=eastwest;" parent="2Mky9sf-3EUOuvfR4mi3-2" vertex="1">
          <mxGeometry y="398" width="220" height="26" as="geometry" />
        </mxCell>
        <mxCell id="2Mky9sf-3EUOuvfR4mi3-19" value="" style="group" parent="2Mky9sf-3EUOuvfR4mi3-1" vertex="1" connectable="0">
          <mxGeometry y="141" width="876" height="856" as="geometry" />
        </mxCell>
        <mxCell id="2Mky9sf-3EUOuvfR4mi3-20" value="Ablum" style="swimlane;fontStyle=0;align=center;verticalAlign=top;childLayout=stackLayout;horizontal=1;startSize=26;horizontalStack=0;resizeParent=1;resizeLast=0;collapsible=1;marginBottom=0;rounded=0;shadow=0;strokeWidth=1;" parent="2Mky9sf-3EUOuvfR4mi3-19" vertex="1">
          <mxGeometry y="294" width="220" height="424" as="geometry">
            <mxRectangle x="230" y="140" width="160" height="26" as="alternateBounds" />
          </mxGeometry>
        </mxCell>
        <mxCell id="2Mky9sf-3EUOuvfR4mi3-21" value="-aid : int" style="text;align=left;verticalAlign=top;spacingLeft=4;spacingRight=4;overflow=hidden;rotatable=0;points=[[0,0.5],[1,0.5]];portConstraint=eastwest;" parent="2Mky9sf-3EUOuvfR4mi3-20" vertex="1">
          <mxGeometry y="26" width="220" height="26" as="geometry" />
        </mxCell>
        <mxCell id="2Mky9sf-3EUOuvfR4mi3-22" value="-aname : String" style="text;align=left;verticalAlign=top;spacingLeft=4;spacingRight=4;overflow=hidden;rotatable=0;points=[[0,0.5],[1,0.5]];portConstraint=eastwest;rounded=0;shadow=0;html=0;" parent="2Mky9sf-3EUOuvfR4mi3-20" vertex="1">
          <mxGeometry y="52" width="220" height="26" as="geometry" />
        </mxCell>
        <mxCell id="2Mky9sf-3EUOuvfR4mi3-23" value="-acreateTime : Date" style="text;align=left;verticalAlign=top;spacingLeft=4;spacingRight=4;overflow=hidden;rotatable=0;points=[[0,0.5],[1,0.5]];portConstraint=eastwest;rounded=0;shadow=0;html=0;" parent="2Mky9sf-3EUOuvfR4mi3-20" vertex="1">
          <mxGeometry y="78" width="220" height="26" as="geometry" />
        </mxCell>
        <mxCell id="2Mky9sf-3EUOuvfR4mi3-24" value="-adiscription : String" style="text;align=left;verticalAlign=top;spacingLeft=4;spacingRight=4;overflow=hidden;rotatable=0;points=[[0,0.5],[1,0.5]];portConstraint=eastwest;rounded=0;shadow=0;html=0;" parent="2Mky9sf-3EUOuvfR4mi3-20" vertex="1">
          <mxGeometry y="104" width="220" height="26" as="geometry" />
        </mxCell>
        <mxCell id="2Mky9sf-3EUOuvfR4mi3-25" value="-uid : int" style="text;align=left;verticalAlign=top;spacingLeft=4;spacingRight=4;overflow=hidden;rotatable=0;points=[[0,0.5],[1,0.5]];portConstraint=eastwest;rounded=0;shadow=0;html=0;" parent="2Mky9sf-3EUOuvfR4mi3-20" vertex="1">
          <mxGeometry y="130" width="220" height="26" as="geometry" />
        </mxCell>
        <mxCell id="2Mky9sf-3EUOuvfR4mi3-26" value="" style="line;html=1;strokeWidth=1;align=left;verticalAlign=middle;spacingTop=-1;spacingLeft=3;spacingRight=3;rotatable=0;labelPosition=right;points=[];portConstraint=eastwest;" parent="2Mky9sf-3EUOuvfR4mi3-20" vertex="1">
          <mxGeometry y="156" width="220" height="8" as="geometry" />
        </mxCell>
        <mxCell id="2Mky9sf-3EUOuvfR4mi3-27" value="+getAid() : int" style="text;align=left;verticalAlign=top;spacingLeft=4;spacingRight=4;overflow=hidden;rotatable=0;points=[[0,0.5],[1,0.5]];portConstraint=eastwest;" parent="2Mky9sf-3EUOuvfR4mi3-20" vertex="1">
          <mxGeometry y="164" width="220" height="26" as="geometry" />
        </mxCell>
        <mxCell id="2Mky9sf-3EUOuvfR4mi3-28" value="+setAid(aid : int)" style="text;align=left;verticalAlign=top;spacingLeft=4;spacingRight=4;overflow=hidden;rotatable=0;points=[[0,0.5],[1,0.5]];portConstraint=eastwest;" parent="2Mky9sf-3EUOuvfR4mi3-20" vertex="1">
          <mxGeometry y="190" width="220" height="26" as="geometry" />
        </mxCell>
        <mxCell id="2Mky9sf-3EUOuvfR4mi3-29" value="+getAname() : String" style="text;align=left;verticalAlign=top;spacingLeft=4;spacingRight=4;overflow=hidden;rotatable=0;points=[[0,0.5],[1,0.5]];portConstraint=eastwest;" parent="2Mky9sf-3EUOuvfR4mi3-20" vertex="1">
          <mxGeometry y="216" width="220" height="26" as="geometry" />
        </mxCell>
        <mxCell id="2Mky9sf-3EUOuvfR4mi3-30" value="+setAname(aname : String)" style="text;align=left;verticalAlign=top;spacingLeft=4;spacingRight=4;overflow=hidden;rotatable=0;points=[[0,0.5],[1,0.5]];portConstraint=eastwest;" parent="2Mky9sf-3EUOuvfR4mi3-20" vertex="1">
          <mxGeometry y="242" width="220" height="26" as="geometry" />
        </mxCell>
        <mxCell id="2Mky9sf-3EUOuvfR4mi3-31" value="+getAcreateTime() : Date" style="text;align=left;verticalAlign=top;spacingLeft=4;spacingRight=4;overflow=hidden;rotatable=0;points=[[0,0.5],[1,0.5]];portConstraint=eastwest;" parent="2Mky9sf-3EUOuvfR4mi3-20" vertex="1">
          <mxGeometry y="268" width="220" height="26" as="geometry" />
        </mxCell>
        <mxCell id="2Mky9sf-3EUOuvfR4mi3-32" value="+setAcreateTime(acreateTime : Date)" style="text;align=left;verticalAlign=top;spacingLeft=4;spacingRight=4;overflow=hidden;rotatable=0;points=[[0,0.5],[1,0.5]];portConstraint=eastwest;" parent="2Mky9sf-3EUOuvfR4mi3-20" vertex="1">
          <mxGeometry y="294" width="220" height="26" as="geometry" />
        </mxCell>
        <mxCell id="2Mky9sf-3EUOuvfR4mi3-33" value="+getAdiscription() : String" style="text;align=left;verticalAlign=top;spacingLeft=4;spacingRight=4;overflow=hidden;rotatable=0;points=[[0,0.5],[1,0.5]];portConstraint=eastwest;" parent="2Mky9sf-3EUOuvfR4mi3-20" vertex="1">
          <mxGeometry y="320" width="220" height="26" as="geometry" />
        </mxCell>
        <mxCell id="2Mky9sf-3EUOuvfR4mi3-34" value="+setAdiscription(adiscription : String)" style="text;align=left;verticalAlign=top;spacingLeft=4;spacingRight=4;overflow=hidden;rotatable=0;points=[[0,0.5],[1,0.5]];portConstraint=eastwest;" parent="2Mky9sf-3EUOuvfR4mi3-20" vertex="1">
          <mxGeometry y="346" width="220" height="26" as="geometry" />
        </mxCell>
        <mxCell id="2Mky9sf-3EUOuvfR4mi3-35" value="+getUid() : int" style="text;align=left;verticalAlign=top;spacingLeft=4;spacingRight=4;overflow=hidden;rotatable=0;points=[[0,0.5],[1,0.5]];portConstraint=eastwest;" parent="2Mky9sf-3EUOuvfR4mi3-20" vertex="1">
          <mxGeometry y="372" width="220" height="26" as="geometry" />
        </mxCell>
        <mxCell id="2Mky9sf-3EUOuvfR4mi3-36" value="+setUid(uid : int)" style="text;align=left;verticalAlign=top;spacingLeft=4;spacingRight=4;overflow=hidden;rotatable=0;points=[[0,0.5],[1,0.5]];portConstraint=eastwest;" parent="2Mky9sf-3EUOuvfR4mi3-20" vertex="1">
          <mxGeometry y="398" width="220" height="26" as="geometry" />
        </mxCell>
        <mxCell id="2Mky9sf-3EUOuvfR4mi3-37" value="&lt;&lt;interface&gt;&gt;&#xa;PhotoDAO" style="swimlane;fontStyle=0;align=center;verticalAlign=top;childLayout=stackLayout;horizontal=1;startSize=40;horizontalStack=0;resizeParent=1;resizeLast=0;collapsible=1;marginBottom=0;rounded=0;shadow=0;strokeWidth=1;" parent="2Mky9sf-3EUOuvfR4mi3-19" vertex="1">
          <mxGeometry x="466" width="410" height="310" as="geometry">
            <mxRectangle x="230" y="140" width="160" height="26" as="alternateBounds" />
          </mxGeometry>
        </mxCell>
        <mxCell id="2Mky9sf-3EUOuvfR4mi3-38" value="" style="line;html=1;strokeWidth=1;align=left;verticalAlign=middle;spacingTop=-1;spacingLeft=3;spacingRight=3;rotatable=0;labelPosition=right;points=[];portConstraint=eastwest;" parent="2Mky9sf-3EUOuvfR4mi3-37" vertex="1">
          <mxGeometry y="40" width="410" height="8" as="geometry" />
        </mxCell>
        <mxCell id="2Mky9sf-3EUOuvfR4mi3-39" value="+addPhoto(p : Photo) : boolean" style="text;align=left;verticalAlign=top;spacingLeft=4;spacingRight=4;overflow=hidden;rotatable=0;points=[[0,0.5],[1,0.5]];portConstraint=eastwest;" parent="2Mky9sf-3EUOuvfR4mi3-37" vertex="1">
          <mxGeometry y="48" width="410" height="26" as="geometry" />
        </mxCell>
        <mxCell id="2Mky9sf-3EUOuvfR4mi3-40" value="+delPhotoByAid(aid : int) : boolean" style="text;align=left;verticalAlign=top;spacingLeft=4;spacingRight=4;overflow=hidden;rotatable=0;points=[[0,0.5],[1,0.5]];portConstraint=eastwest;" parent="2Mky9sf-3EUOuvfR4mi3-37" vertex="1">
          <mxGeometry y="74" width="410" height="26" as="geometry" />
        </mxCell>
        <mxCell id="2Mky9sf-3EUOuvfR4mi3-41" value="+findByAid(aid : int,pageSize : int,currentPage : int) : List&lt;Photo&gt;" style="text;align=left;verticalAlign=top;spacingLeft=4;spacingRight=4;overflow=hidden;rotatable=0;points=[[0,0.5],[1,0.5]];portConstraint=eastwest;" parent="2Mky9sf-3EUOuvfR4mi3-37" vertex="1">
          <mxGeometry y="100" width="410" height="26" as="geometry" />
        </mxCell>
        <mxCell id="2Mky9sf-3EUOuvfR4mi3-42" value="+delPhotoByPid(pid : int) : boolean" style="text;align=left;verticalAlign=top;spacingLeft=4;spacingRight=4;overflow=hidden;rotatable=0;points=[[0,0.5],[1,0.5]];portConstraint=eastwest;" parent="2Mky9sf-3EUOuvfR4mi3-37" vertex="1">
          <mxGeometry y="126" width="410" height="26" as="geometry" />
        </mxCell>
        <mxCell id="2Mky9sf-3EUOuvfR4mi3-43" value="+getTotalPage(aid : int, pageSize : int) : int" style="text;align=left;verticalAlign=top;spacingLeft=4;spacingRight=4;overflow=hidden;rotatable=0;points=[[0,0.5],[1,0.5]];portConstraint=eastwest;" parent="2Mky9sf-3EUOuvfR4mi3-37" vertex="1">
          <mxGeometry y="152" width="410" height="26" as="geometry" />
        </mxCell>
        <mxCell id="2Mky9sf-3EUOuvfR4mi3-44" value="+findByPid(pid : int) : Photo" style="text;align=left;verticalAlign=top;spacingLeft=4;spacingRight=4;overflow=hidden;rotatable=0;points=[[0,0.5],[1,0.5]];portConstraint=eastwest;" parent="2Mky9sf-3EUOuvfR4mi3-37" vertex="1">
          <mxGeometry y="178" width="410" height="26" as="geometry" />
        </mxCell>
        <mxCell id="2Mky9sf-3EUOuvfR4mi3-45" value="+getTotalNum(aid : int) : int" style="text;align=left;verticalAlign=top;spacingLeft=4;spacingRight=4;overflow=hidden;rotatable=0;points=[[0,0.5],[1,0.5]];portConstraint=eastwest;" parent="2Mky9sf-3EUOuvfR4mi3-37" vertex="1">
          <mxGeometry y="204" width="410" height="26" as="geometry" />
        </mxCell>
        <mxCell id="2Mky9sf-3EUOuvfR4mi3-46" value="+findAll(aid : int) : List&lt;Photo&gt;" style="text;align=left;verticalAlign=top;spacingLeft=4;spacingRight=4;overflow=hidden;rotatable=0;points=[[0,0.5],[1,0.5]];portConstraint=eastwest;" parent="2Mky9sf-3EUOuvfR4mi3-37" vertex="1">
          <mxGeometry y="230" width="410" height="26" as="geometry" />
        </mxCell>
        <mxCell id="2Mky9sf-3EUOuvfR4mi3-47" value="+queryPhoto(sql : String,pageSize : int, currentPage : int) : List&lt;Photo&gt;" style="text;align=left;verticalAlign=top;spacingLeft=4;spacingRight=4;overflow=hidden;rotatable=0;points=[[0,0.5],[1,0.5]];portConstraint=eastwest;" parent="2Mky9sf-3EUOuvfR4mi3-37" vertex="1">
          <mxGeometry y="256" width="410" height="26" as="geometry" />
        </mxCell>
        <mxCell id="2Mky9sf-3EUOuvfR4mi3-48" value="+getTotalPage(sql : String,pageSize : int) : int" style="text;align=left;verticalAlign=top;spacingLeft=4;spacingRight=4;overflow=hidden;rotatable=0;points=[[0,0.5],[1,0.5]];portConstraint=eastwest;" parent="2Mky9sf-3EUOuvfR4mi3-37" vertex="1">
          <mxGeometry y="282" width="410" height="26" as="geometry" />
        </mxCell>
        <mxCell id="2Mky9sf-3EUOuvfR4mi3-49" value="PhotoDAOImpl" style="swimlane;fontStyle=0;align=center;verticalAlign=top;childLayout=stackLayout;horizontal=1;startSize=26;horizontalStack=0;resizeParent=1;resizeLast=0;collapsible=1;marginBottom=0;rounded=0;shadow=0;strokeWidth=1;" parent="2Mky9sf-3EUOuvfR4mi3-19" vertex="1">
          <mxGeometry x="476" y="476" width="390" height="380" as="geometry">
            <mxRectangle x="230" y="140" width="160" height="26" as="alternateBounds" />
          </mxGeometry>
        </mxCell>
        <mxCell id="2Mky9sf-3EUOuvfR4mi3-50" value="-conn : Connection" style="text;align=left;verticalAlign=top;spacingLeft=4;spacingRight=4;overflow=hidden;rotatable=0;points=[[0,0.5],[1,0.5]];portConstraint=eastwest;" parent="2Mky9sf-3EUOuvfR4mi3-49" vertex="1">
          <mxGeometry y="26" width="390" height="26" as="geometry" />
        </mxCell>
        <mxCell id="2Mky9sf-3EUOuvfR4mi3-51" value="-ps : PreparedStatement" style="text;align=left;verticalAlign=top;spacingLeft=4;spacingRight=4;overflow=hidden;rotatable=0;points=[[0,0.5],[1,0.5]];portConstraint=eastwest;rounded=0;shadow=0;html=0;" parent="2Mky9sf-3EUOuvfR4mi3-49" vertex="1">
          <mxGeometry y="52" width="390" height="26" as="geometry" />
        </mxCell>
        <mxCell id="2Mky9sf-3EUOuvfR4mi3-52" value="-rs : ResultSet" style="text;align=left;verticalAlign=top;spacingLeft=4;spacingRight=4;overflow=hidden;rotatable=0;points=[[0,0.5],[1,0.5]];portConstraint=eastwest;rounded=0;shadow=0;html=0;" parent="2Mky9sf-3EUOuvfR4mi3-49" vertex="1">
          <mxGeometry y="78" width="390" height="26" as="geometry" />
        </mxCell>
        <mxCell id="2Mky9sf-3EUOuvfR4mi3-53" value="" style="line;html=1;strokeWidth=1;align=left;verticalAlign=middle;spacingTop=-1;spacingLeft=3;spacingRight=3;rotatable=0;labelPosition=right;points=[];portConstraint=eastwest;" parent="2Mky9sf-3EUOuvfR4mi3-49" vertex="1">
          <mxGeometry y="104" width="390" height="8" as="geometry" />
        </mxCell>
        <mxCell id="2Mky9sf-3EUOuvfR4mi3-54" value="+addPhoto(p : Photo) : boolean" style="text;align=left;verticalAlign=top;spacingLeft=4;spacingRight=4;overflow=hidden;rotatable=0;points=[[0,0.5],[1,0.5]];portConstraint=eastwest;" parent="2Mky9sf-3EUOuvfR4mi3-49" vertex="1">
          <mxGeometry y="112" width="390" height="26" as="geometry" />
        </mxCell>
        <mxCell id="2Mky9sf-3EUOuvfR4mi3-55" value="+delPhotoByAid(aid : int) : boolean" style="text;align=left;verticalAlign=top;spacingLeft=4;spacingRight=4;overflow=hidden;rotatable=0;points=[[0,0.5],[1,0.5]];portConstraint=eastwest;" parent="2Mky9sf-3EUOuvfR4mi3-49" vertex="1">
          <mxGeometry y="138" width="390" height="26" as="geometry" />
        </mxCell>
        <mxCell id="2Mky9sf-3EUOuvfR4mi3-56" value="+findByAid(aid : int,pageSize : int,currentPage : int) : List&lt;Photo&gt;" style="text;align=left;verticalAlign=top;spacingLeft=4;spacingRight=4;overflow=hidden;rotatable=0;points=[[0,0.5],[1,0.5]];portConstraint=eastwest;" parent="2Mky9sf-3EUOuvfR4mi3-49" vertex="1">
          <mxGeometry y="164" width="390" height="26" as="geometry" />
        </mxCell>
        <mxCell id="2Mky9sf-3EUOuvfR4mi3-57" value="+delPhotoByPid(pid : int) : boolean" style="text;align=left;verticalAlign=top;spacingLeft=4;spacingRight=4;overflow=hidden;rotatable=0;points=[[0,0.5],[1,0.5]];portConstraint=eastwest;" parent="2Mky9sf-3EUOuvfR4mi3-49" vertex="1">
          <mxGeometry y="190" width="390" height="26" as="geometry" />
        </mxCell>
        <mxCell id="2Mky9sf-3EUOuvfR4mi3-58" value="+getTotalPage(aid : int,pageSize : int) : int" style="text;align=left;verticalAlign=top;spacingLeft=4;spacingRight=4;overflow=hidden;rotatable=0;points=[[0,0.5],[1,0.5]];portConstraint=eastwest;" parent="2Mky9sf-3EUOuvfR4mi3-49" vertex="1">
          <mxGeometry y="216" width="390" height="26" as="geometry" />
        </mxCell>
        <mxCell id="2Mky9sf-3EUOuvfR4mi3-59" value="+findByPid(pid : int) : Photo" style="text;align=left;verticalAlign=top;spacingLeft=4;spacingRight=4;overflow=hidden;rotatable=0;points=[[0,0.5],[1,0.5]];portConstraint=eastwest;" parent="2Mky9sf-3EUOuvfR4mi3-49" vertex="1">
          <mxGeometry y="242" width="390" height="26" as="geometry" />
        </mxCell>
        <mxCell id="2Mky9sf-3EUOuvfR4mi3-60" value="+getTotalNum(aid : int) : int" style="text;align=left;verticalAlign=top;spacingLeft=4;spacingRight=4;overflow=hidden;rotatable=0;points=[[0,0.5],[1,0.5]];portConstraint=eastwest;" parent="2Mky9sf-3EUOuvfR4mi3-49" vertex="1">
          <mxGeometry y="268" width="390" height="26" as="geometry" />
        </mxCell>
        <mxCell id="2Mky9sf-3EUOuvfR4mi3-61" value="+findAll(aid : int) : List&lt;Photo&gt;" style="text;align=left;verticalAlign=top;spacingLeft=4;spacingRight=4;overflow=hidden;rotatable=0;points=[[0,0.5],[1,0.5]];portConstraint=eastwest;" parent="2Mky9sf-3EUOuvfR4mi3-49" vertex="1">
          <mxGeometry y="294" width="390" height="26" as="geometry" />
        </mxCell>
        <mxCell id="2Mky9sf-3EUOuvfR4mi3-62" value="+queryPhoto(sql : String,pageSize : int,currentPage : int) : List&lt;Photo&gt;" style="text;align=left;verticalAlign=top;spacingLeft=4;spacingRight=4;overflow=hidden;rotatable=0;points=[[0,0.5],[1,0.5]];portConstraint=eastwest;" parent="2Mky9sf-3EUOuvfR4mi3-49" vertex="1">
          <mxGeometry y="320" width="390" height="26" as="geometry" />
        </mxCell>
        <mxCell id="2Mky9sf-3EUOuvfR4mi3-63" value="+getTotalPage(sql : String,pageSize : int) : int" style="text;align=left;verticalAlign=top;spacingLeft=4;spacingRight=4;overflow=hidden;rotatable=0;points=[[0,0.5],[1,0.5]];portConstraint=eastwest;" parent="2Mky9sf-3EUOuvfR4mi3-49" vertex="1">
          <mxGeometry y="346" width="390" height="26" as="geometry" />
        </mxCell>
        <mxCell id="2Mky9sf-3EUOuvfR4mi3-64" value="" style="endArrow=block;dashed=1;endFill=0;endSize=12;html=1;rounded=0;" parent="2Mky9sf-3EUOuvfR4mi3-19" source="2Mky9sf-3EUOuvfR4mi3-37" target="2Mky9sf-3EUOuvfR4mi3-49" edge="1">
          <mxGeometry width="160" relative="1" as="geometry">
            <mxPoint x="664" y="302" as="sourcePoint" />
            <mxPoint x="824" y="302" as="targetPoint" />
          </mxGeometry>
        </mxCell>
        <mxCell id="2Mky9sf-3EUOuvfR4mi3-65" value="Use" style="endArrow=open;endSize=12;dashed=1;html=1;rounded=0;" parent="2Mky9sf-3EUOuvfR4mi3-19" source="2Mky9sf-3EUOuvfR4mi3-20" target="2Mky9sf-3EUOuvfR4mi3-37" edge="1">
          <mxGeometry width="160" relative="1" as="geometry">
            <mxPoint x="116" y="217" as="sourcePoint" />
            <mxPoint x="276" y="217" as="targetPoint" />
          </mxGeometry>
        </mxCell>
        <mxCell id="2Mky9sf-3EUOuvfR4mi3-66" value="Use" style="endArrow=open;endSize=12;dashed=1;html=1;rounded=0;entryX=0;entryY=0.5;entryDx=0;entryDy=0;" parent="2Mky9sf-3EUOuvfR4mi3-1" source="2Mky9sf-3EUOuvfR4mi3-2" target="2Mky9sf-3EUOuvfR4mi3-51" edge="1">
          <mxGeometry width="160" relative="1" as="geometry">
            <mxPoint x="604" y="170.29" as="sourcePoint" />
            <mxPoint x="764" y="170.29" as="targetPoint" />
          </mxGeometry>
        </mxCell>
        <mxCell id="2Mky9sf-3EUOuvfR4mi3-67" value="" style="group" parent="1" vertex="1" connectable="0">
          <mxGeometry x="560" y="1775" width="922" height="373" as="geometry" />
        </mxCell>
        <mxCell id="2Mky9sf-3EUOuvfR4mi3-68" value="" style="shape=umlLifeline;perimeter=lifelinePerimeter;whiteSpace=wrap;html=1;container=1;dropTarget=0;collapsible=0;recursiveResize=0;outlineConnect=0;portConstraint=eastwest;newEdgeStyle={&quot;edgeStyle&quot;:&quot;elbowEdgeStyle&quot;,&quot;elbow&quot;:&quot;vertical&quot;,&quot;curved&quot;:0,&quot;rounded&quot;:0};participant=umlActor;" parent="2Mky9sf-3EUOuvfR4mi3-67" vertex="1">
          <mxGeometry width="20" height="360" as="geometry" />
        </mxCell>
        <mxCell id="2Mky9sf-3EUOuvfR4mi3-69" value="" style="html=1;points=[];perimeter=orthogonalPerimeter;outlineConnect=0;targetShapes=umlLifeline;portConstraint=eastwest;newEdgeStyle={&quot;edgeStyle&quot;:&quot;elbowEdgeStyle&quot;,&quot;elbow&quot;:&quot;vertical&quot;,&quot;curved&quot;:0,&quot;rounded&quot;:0};" parent="2Mky9sf-3EUOuvfR4mi3-68" vertex="1">
          <mxGeometry x="5" y="73" width="10" height="220" as="geometry" />
        </mxCell>
        <mxCell id="2Mky9sf-3EUOuvfR4mi3-70" value="Album" style="shape=umlLifeline;perimeter=lifelinePerimeter;whiteSpace=wrap;html=1;container=1;dropTarget=0;collapsible=0;recursiveResize=0;outlineConnect=0;portConstraint=eastwest;newEdgeStyle={&quot;edgeStyle&quot;:&quot;elbowEdgeStyle&quot;,&quot;elbow&quot;:&quot;vertical&quot;,&quot;curved&quot;:0,&quot;rounded&quot;:0};" parent="2Mky9sf-3EUOuvfR4mi3-67" vertex="1">
          <mxGeometry x="367" width="100" height="354" as="geometry" />
        </mxCell>
        <mxCell id="2Mky9sf-3EUOuvfR4mi3-71" value="" style="html=1;points=[];perimeter=orthogonalPerimeter;outlineConnect=0;targetShapes=umlLifeline;portConstraint=eastwest;newEdgeStyle={&quot;edgeStyle&quot;:&quot;elbowEdgeStyle&quot;,&quot;elbow&quot;:&quot;vertical&quot;,&quot;curved&quot;:0,&quot;rounded&quot;:0};" parent="2Mky9sf-3EUOuvfR4mi3-70" vertex="1">
          <mxGeometry x="45" y="88" width="10" height="31" as="geometry" />
        </mxCell>
        <mxCell id="2Mky9sf-3EUOuvfR4mi3-72" value="ServletUpload" style="shape=umlLifeline;perimeter=lifelinePerimeter;whiteSpace=wrap;html=1;container=1;dropTarget=0;collapsible=0;recursiveResize=0;outlineConnect=0;portConstraint=eastwest;newEdgeStyle={&quot;edgeStyle&quot;:&quot;elbowEdgeStyle&quot;,&quot;elbow&quot;:&quot;vertical&quot;,&quot;curved&quot;:0,&quot;rounded&quot;:0};" parent="2Mky9sf-3EUOuvfR4mi3-67" vertex="1">
          <mxGeometry x="213" width="100" height="356" as="geometry" />
        </mxCell>
        <mxCell id="2Mky9sf-3EUOuvfR4mi3-73" value="" style="html=1;points=[];perimeter=orthogonalPerimeter;outlineConnect=0;targetShapes=umlLifeline;portConstraint=eastwest;newEdgeStyle={&quot;edgeStyle&quot;:&quot;elbowEdgeStyle&quot;,&quot;elbow&quot;:&quot;vertical&quot;,&quot;curved&quot;:0,&quot;rounded&quot;:0};" parent="2Mky9sf-3EUOuvfR4mi3-72" vertex="1">
          <mxGeometry x="45" y="169" width="10" height="41" as="geometry" />
        </mxCell>
        <mxCell id="2Mky9sf-3EUOuvfR4mi3-74" value="PhotoUploadServlet" style="shape=umlLifeline;perimeter=lifelinePerimeter;whiteSpace=wrap;html=1;container=1;dropTarget=0;collapsible=0;recursiveResize=0;outlineConnect=0;portConstraint=eastwest;newEdgeStyle={&quot;edgeStyle&quot;:&quot;elbowEdgeStyle&quot;,&quot;elbow&quot;:&quot;vertical&quot;,&quot;curved&quot;:0,&quot;rounded&quot;:0};" parent="2Mky9sf-3EUOuvfR4mi3-67" vertex="1">
          <mxGeometry x="64" width="117" height="361" as="geometry" />
        </mxCell>
        <mxCell id="2Mky9sf-3EUOuvfR4mi3-75" value="" style="html=1;points=[];perimeter=orthogonalPerimeter;outlineConnect=0;targetShapes=umlLifeline;portConstraint=eastwest;newEdgeStyle={&quot;edgeStyle&quot;:&quot;elbowEdgeStyle&quot;,&quot;elbow&quot;:&quot;vertical&quot;,&quot;curved&quot;:0,&quot;rounded&quot;:0};" parent="2Mky9sf-3EUOuvfR4mi3-74" vertex="1">
          <mxGeometry x="53.5" y="82" width="10" height="260" as="geometry" />
        </mxCell>
        <mxCell id="2Mky9sf-3EUOuvfR4mi3-76" value="PhotoDAO" style="shape=umlLifeline;perimeter=lifelinePerimeter;whiteSpace=wrap;html=1;container=1;dropTarget=0;collapsible=0;recursiveResize=0;outlineConnect=0;portConstraint=eastwest;newEdgeStyle={&quot;edgeStyle&quot;:&quot;elbowEdgeStyle&quot;,&quot;elbow&quot;:&quot;vertical&quot;,&quot;curved&quot;:0,&quot;rounded&quot;:0};" parent="2Mky9sf-3EUOuvfR4mi3-67" vertex="1">
          <mxGeometry x="673" width="100" height="358" as="geometry" />
        </mxCell>
        <mxCell id="2Mky9sf-3EUOuvfR4mi3-77" value="" style="html=1;points=[];perimeter=orthogonalPerimeter;outlineConnect=0;targetShapes=umlLifeline;portConstraint=eastwest;newEdgeStyle={&quot;edgeStyle&quot;:&quot;elbowEdgeStyle&quot;,&quot;elbow&quot;:&quot;vertical&quot;,&quot;curved&quot;:0,&quot;rounded&quot;:0};" parent="2Mky9sf-3EUOuvfR4mi3-76" vertex="1">
          <mxGeometry x="45" y="258" width="10" height="29" as="geometry" />
        </mxCell>
        <mxCell id="2Mky9sf-3EUOuvfR4mi3-78" value="Photo" style="shape=umlLifeline;perimeter=lifelinePerimeter;whiteSpace=wrap;html=1;container=1;dropTarget=0;collapsible=0;recursiveResize=0;outlineConnect=0;portConstraint=eastwest;newEdgeStyle={&quot;edgeStyle&quot;:&quot;elbowEdgeStyle&quot;,&quot;elbow&quot;:&quot;vertical&quot;,&quot;curved&quot;:0,&quot;rounded&quot;:0};" parent="2Mky9sf-3EUOuvfR4mi3-67" vertex="1">
          <mxGeometry x="524" width="100" height="356" as="geometry" />
        </mxCell>
        <mxCell id="2Mky9sf-3EUOuvfR4mi3-79" value="" style="html=1;points=[];perimeter=orthogonalPerimeter;outlineConnect=0;targetShapes=umlLifeline;portConstraint=eastwest;newEdgeStyle={&quot;edgeStyle&quot;:&quot;elbowEdgeStyle&quot;,&quot;elbow&quot;:&quot;vertical&quot;,&quot;curved&quot;:0,&quot;rounded&quot;:0};" parent="2Mky9sf-3EUOuvfR4mi3-78" vertex="1">
          <mxGeometry x="45" y="235" width="10" height="29" as="geometry" />
        </mxCell>
        <mxCell id="2Mky9sf-3EUOuvfR4mi3-80" value="PhotoDAOImpl" style="shape=umlLifeline;perimeter=lifelinePerimeter;whiteSpace=wrap;html=1;container=1;dropTarget=0;collapsible=0;recursiveResize=0;outlineConnect=0;portConstraint=eastwest;newEdgeStyle={&quot;edgeStyle&quot;:&quot;elbowEdgeStyle&quot;,&quot;elbow&quot;:&quot;vertical&quot;,&quot;curved&quot;:0,&quot;rounded&quot;:0};" parent="2Mky9sf-3EUOuvfR4mi3-67" vertex="1">
          <mxGeometry x="822" width="100" height="373" as="geometry" />
        </mxCell>
        <mxCell id="2Mky9sf-3EUOuvfR4mi3-81" value="" style="html=1;points=[];perimeter=orthogonalPerimeter;outlineConnect=0;targetShapes=umlLifeline;portConstraint=eastwest;newEdgeStyle={&quot;edgeStyle&quot;:&quot;elbowEdgeStyle&quot;,&quot;elbow&quot;:&quot;vertical&quot;,&quot;curved&quot;:0,&quot;rounded&quot;:0};" parent="2Mky9sf-3EUOuvfR4mi3-80" vertex="1">
          <mxGeometry x="45" y="287" width="10" height="29" as="geometry" />
        </mxCell>
        <mxCell id="2Mky9sf-3EUOuvfR4mi3-82" value="" style="endArrow=open;endFill=1;endSize=12;html=1;rounded=0;" parent="2Mky9sf-3EUOuvfR4mi3-67" edge="1">
          <mxGeometry width="160" relative="1" as="geometry">
            <mxPoint x="15" y="87" as="sourcePoint" />
            <mxPoint x="117" y="87" as="targetPoint" />
          </mxGeometry>
        </mxCell>
        <mxCell id="2Mky9sf-3EUOuvfR4mi3-83" value="PhotoUploadServlet" style="text;html=1;align=center;verticalAlign=middle;resizable=0;points=[];autosize=1;strokeColor=none;fillColor=none;" parent="2Mky9sf-3EUOuvfR4mi3-67" vertex="1">
          <mxGeometry x="5" y="62" width="125" height="26" as="geometry" />
        </mxCell>
        <mxCell id="2Mky9sf-3EUOuvfR4mi3-84" value="" style="endArrow=open;endFill=1;endSize=12;html=1;rounded=0;dashed=1;" parent="2Mky9sf-3EUOuvfR4mi3-67" source="2Mky9sf-3EUOuvfR4mi3-75" target="2Mky9sf-3EUOuvfR4mi3-68" edge="1">
          <mxGeometry width="160" relative="1" as="geometry">
            <mxPoint x="520" y="119" as="sourcePoint" />
            <mxPoint x="87" y="350" as="targetPoint" />
            <Array as="points">
              <mxPoint x="73" y="268" />
            </Array>
          </mxGeometry>
        </mxCell>
        <mxCell id="2Mky9sf-3EUOuvfR4mi3-85" value="return" style="text;html=1;align=center;verticalAlign=middle;resizable=0;points=[];autosize=1;strokeColor=none;fillColor=none;" parent="2Mky9sf-3EUOuvfR4mi3-67" vertex="1">
          <mxGeometry x="42" y="267" width="49" height="26" as="geometry" />
        </mxCell>
        <mxCell id="2Mky9sf-3EUOuvfR4mi3-86" value="" style="endArrow=open;endFill=1;endSize=12;html=1;rounded=0;" parent="2Mky9sf-3EUOuvfR4mi3-67" target="2Mky9sf-3EUOuvfR4mi3-70" edge="1">
          <mxGeometry width="160" relative="1" as="geometry">
            <mxPoint x="127" y="88" as="sourcePoint" />
            <mxPoint x="287" y="88" as="targetPoint" />
          </mxGeometry>
        </mxCell>
        <mxCell id="2Mky9sf-3EUOuvfR4mi3-87" value="getAblum()" style="text;html=1;align=center;verticalAlign=middle;resizable=0;points=[];autosize=1;strokeColor=none;fillColor=none;" parent="2Mky9sf-3EUOuvfR4mi3-67" vertex="1">
          <mxGeometry x="193" y="61" width="77" height="26" as="geometry" />
        </mxCell>
        <mxCell id="2Mky9sf-3EUOuvfR4mi3-88" value="" style="endArrow=open;endFill=1;endSize=12;html=1;rounded=0;" parent="2Mky9sf-3EUOuvfR4mi3-67" edge="1">
          <mxGeometry width="160" relative="1" as="geometry">
            <mxPoint x="411" y="118" as="sourcePoint" />
            <mxPoint x="121" y="118" as="targetPoint" />
          </mxGeometry>
        </mxCell>
        <mxCell id="2Mky9sf-3EUOuvfR4mi3-89" value="return Album()" style="text;html=1;align=center;verticalAlign=middle;resizable=0;points=[];autosize=1;strokeColor=none;fillColor=none;" parent="2Mky9sf-3EUOuvfR4mi3-67" vertex="1">
          <mxGeometry x="200" y="113" width="94" height="26" as="geometry" />
        </mxCell>
        <mxCell id="2Mky9sf-3EUOuvfR4mi3-90" value="" style="endArrow=open;endFill=1;endSize=12;html=1;rounded=0;" parent="2Mky9sf-3EUOuvfR4mi3-67" source="2Mky9sf-3EUOuvfR4mi3-75" edge="1">
          <mxGeometry width="160" relative="1" as="geometry">
            <mxPoint x="130" y="170.99799999999982" as="sourcePoint" />
            <mxPoint x="260" y="170.99799999999982" as="targetPoint" />
          </mxGeometry>
        </mxCell>
        <mxCell id="2Mky9sf-3EUOuvfR4mi3-91" value="copy Servlet()" style="text;html=1;align=center;verticalAlign=middle;resizable=0;points=[];autosize=1;strokeColor=none;fillColor=none;" parent="2Mky9sf-3EUOuvfR4mi3-67" vertex="1">
          <mxGeometry x="134" y="149" width="92" height="26" as="geometry" />
        </mxCell>
        <mxCell id="2Mky9sf-3EUOuvfR4mi3-92" value="" style="endArrow=open;endFill=1;endSize=12;html=1;rounded=0;" parent="2Mky9sf-3EUOuvfR4mi3-67" edge="1">
          <mxGeometry width="160" relative="1" as="geometry">
            <mxPoint x="259" y="209" as="sourcePoint" />
            <mxPoint x="123" y="209" as="targetPoint" />
          </mxGeometry>
        </mxCell>
        <mxCell id="2Mky9sf-3EUOuvfR4mi3-93" value="serve()" style="text;html=1;align=center;verticalAlign=middle;resizable=0;points=[];autosize=1;strokeColor=none;fillColor=none;" parent="2Mky9sf-3EUOuvfR4mi3-67" vertex="1">
          <mxGeometry x="152.5" y="207" width="55" height="26" as="geometry" />
        </mxCell>
        <mxCell id="2Mky9sf-3EUOuvfR4mi3-94" value="" style="endArrow=open;endFill=1;endSize=12;html=1;rounded=0;" parent="2Mky9sf-3EUOuvfR4mi3-67" edge="1">
          <mxGeometry width="160" relative="1" as="geometry">
            <mxPoint x="128" y="239" as="sourcePoint" />
            <mxPoint x="569" y="239" as="targetPoint" />
          </mxGeometry>
        </mxCell>
        <mxCell id="2Mky9sf-3EUOuvfR4mi3-95" value="createphoto()" style="text;html=1;align=center;verticalAlign=middle;resizable=0;points=[];autosize=1;strokeColor=none;fillColor=none;" parent="2Mky9sf-3EUOuvfR4mi3-67" vertex="1">
          <mxGeometry x="283" y="216" width="89" height="26" as="geometry" />
        </mxCell>
        <mxCell id="2Mky9sf-3EUOuvfR4mi3-96" value="" style="endArrow=open;endFill=1;endSize=12;html=1;rounded=0;" parent="2Mky9sf-3EUOuvfR4mi3-67" source="2Mky9sf-3EUOuvfR4mi3-79" target="2Mky9sf-3EUOuvfR4mi3-77" edge="1">
          <mxGeometry width="160" relative="1" as="geometry">
            <mxPoint x="639" y="210" as="sourcePoint" />
            <mxPoint x="799" y="210" as="targetPoint" />
          </mxGeometry>
        </mxCell>
        <mxCell id="2Mky9sf-3EUOuvfR4mi3-97" value="" style="endArrow=open;endFill=1;endSize=12;html=1;rounded=0;" parent="2Mky9sf-3EUOuvfR4mi3-67" edge="1">
          <mxGeometry width="160" relative="1" as="geometry">
            <mxPoint x="729" y="287" as="sourcePoint" />
            <mxPoint x="868" y="287" as="targetPoint" />
          </mxGeometry>
        </mxCell>
        <mxCell id="2Mky9sf-3EUOuvfR4mi3-98" value="PhotoDAO()" style="text;html=1;align=center;verticalAlign=middle;resizable=0;points=[];autosize=1;strokeColor=none;fillColor=none;" parent="2Mky9sf-3EUOuvfR4mi3-67" vertex="1">
          <mxGeometry x="601" y="236" width="83" height="26" as="geometry" />
        </mxCell>
        <mxCell id="2Mky9sf-3EUOuvfR4mi3-99" value="Insert()" style="text;html=1;align=center;verticalAlign=middle;resizable=0;points=[];autosize=1;strokeColor=none;fillColor=none;" parent="2Mky9sf-3EUOuvfR4mi3-67" vertex="1">
          <mxGeometry x="766" y="267" width="56" height="26" as="geometry" />
        </mxCell>
        <mxCell id="2Mky9sf-3EUOuvfR4mi3-100" value="" style="endArrow=open;endFill=1;endSize=12;html=1;rounded=0;" parent="2Mky9sf-3EUOuvfR4mi3-67" edge="1">
          <mxGeometry width="160" relative="1" as="geometry">
            <mxPoint x="867" y="315" as="sourcePoint" />
            <mxPoint x="122" y="315" as="targetPoint" />
          </mxGeometry>
        </mxCell>
        <mxCell id="2Mky9sf-3EUOuvfR4mi3-101" value="return" style="text;html=1;align=center;verticalAlign=middle;resizable=0;points=[];autosize=1;strokeColor=none;fillColor=none;" parent="2Mky9sf-3EUOuvfR4mi3-67" vertex="1">
          <mxGeometry x="452" y="293" width="49" height="26" as="geometry" />
        </mxCell>
      </root>
    </mxGraphModel>
  </diagram>
  <diagram id="HTXiOa6adY4Nwl4lbFLL" name="第 3 页">
    <mxGraphModel dx="1488" dy="902" grid="1" gridSize="10" guides="1" tooltips="1" connect="1" arrows="1" fold="1" page="1" pageScale="1" pageWidth="1169" pageHeight="827" math="0" shadow="0">
      <root>
        <mxCell id="0" />
        <mxCell id="1" parent="0" />
      </root>
    </mxGraphModel>
  </diagram>
</mxfile>
